<svg xmlns="http://www.w3.org/2000/svg" xmlns:xlink="http://www.w3.org/1999/xlink" zoomAndPan="magnify" preserveAspectRatio="xMidYMid meet" version="1.0" viewBox="34.76 166.89 306.65 35.11"><defs><g/><clipPath id="83c1759db2"><path d="M 84 0.078125 L 101 0.078125 L 101 20 L 84 20 Z M 84 0.078125 " clip-rule="nonzero"/></clipPath><clipPath id="85648d65cd"><path d="M 102 0.078125 L 121 0.078125 L 121 20 L 102 20 Z M 102 0.078125 " clip-rule="nonzero"/></clipPath><clipPath id="f395c636bb"><path d="M 142 0.078125 L 157 0.078125 L 157 20 L 142 20 Z M 142 0.078125 " clip-rule="nonzero"/></clipPath><clipPath id="19a2e73b89"><path d="M 258 0.078125 L 273 0.078125 L 273 20 L 258 20 Z M 258 0.078125 " clip-rule="nonzero"/></clipPath><clipPath id="4dae1565ac"><rect x="0" width="275" y="0" height="29"/></clipPath><clipPath id="e019d25cb7"><rect x="0" width="276" y="0" height="20"/></clipPath><clipPath id="1821924da0"><path d="M 34.757812 167.394531 L 60.914062 167.394531 L 60.914062 201.597656 L 34.757812 201.597656 Z M 34.757812 167.394531 " clip-rule="nonzero"/></clipPath><clipPath id="7669e278c6"><path d="M 0.757812 0.394531 L 26.914062 0.394531 L 26.914062 34.597656 L 0.757812 34.597656 Z M 0.757812 0.394531 " clip-rule="nonzero"/></clipPath><clipPath id="3d803788b1"><rect x="0" width="27" y="0" height="35"/></clipPath><clipPath id="720dade654"><rect x="0" width="31" y="0" height="55"/></clipPath></defs><g transform="matrix(1, 0, 0, 1, 68, 166)"><g clip-path="url(#4dae1565ac)"><g fill="#403636" fill-opacity="1"><g transform="translate(0.668559, 19.635434)"><g><path d="M 18.109375 0 L 12.328125 0 L 5.53125 -7.8125 L 5.53125 0 L 1.34375 0 L 1.34375 -18.421875 L 5.53125 -18.421875 L 5.53125 -10.890625 L 11.859375 -18.421875 L 16.953125 -18.421875 L 9.53125 -9.6875 Z M 18.109375 0 "/></g></g></g><g fill="#403636" fill-opacity="1"><g transform="translate(19.530621, 19.635434)"><g><path d="M 5.53125 -7.390625 L 5.53125 0 L 1.34375 0 L 1.34375 -18.421875 L 5.53125 -18.421875 L 5.53125 -11.078125 L 11.484375 -11.078125 L 11.484375 -18.421875 L 15.671875 -18.421875 L 15.671875 0 L 11.484375 0 L 11.484375 -7.390625 Z M 5.53125 -7.390625 "/></g></g></g><g fill="#403636" fill-opacity="1"><g transform="translate(37.834651, 19.635434)"><g><path d="M 10.6875 -18.421875 L 18.125 0 L 13.625 0 L 12.265625 -3.6875 L 5.25 -3.6875 L 3.890625 0 L -0.625 0 L 6.8125 -18.421875 Z M 10.828125 -7.375 L 8.78125 -12.734375 L 8.734375 -12.734375 L 6.671875 -7.375 Z M 10.828125 -7.375 "/></g></g></g><g fill="#403636" fill-opacity="1"><g transform="translate(56.629756, 19.635434)"><g><path d="M 5.53125 -11.4375 L 5.53125 0 L 1.34375 0 L 1.34375 -18.421875 L 5.53125 -18.421875 L 12.859375 -6.984375 L 12.90625 -6.984375 L 12.90625 -18.421875 L 17.109375 -18.421875 L 17.109375 0 L 12.90625 0 L 5.578125 -11.4375 Z M 5.53125 -11.4375 "/></g></g></g><g fill="#403636" fill-opacity="1"><g transform="translate(76.362358, 19.635434)"><g/></g></g><g clip-path="url(#83c1759db2)"><g fill="#403636" fill-opacity="1"><g transform="translate(83.751205, 19.635434)"><g><path d="M 11.140625 -3.796875 C 11.785156 -3.796875 12.40625 -3.890625 13 -4.078125 C 13.601562 -4.273438 14.046875 -4.460938 14.328125 -4.640625 L 14.765625 -4.9375 L 16.546875 -1.359375 C 16.484375 -1.316406 16.398438 -1.257812 16.296875 -1.1875 C 16.191406 -1.113281 15.945312 -0.972656 15.5625 -0.765625 C 15.1875 -0.566406 14.78125 -0.390625 14.34375 -0.234375 C 13.914062 -0.0859375 13.351562 0.0390625 12.65625 0.15625 C 11.957031 0.269531 11.238281 0.328125 10.5 0.328125 C 8.78125 0.328125 7.15625 -0.0859375 5.625 -0.921875 C 4.09375 -1.765625 2.859375 -2.921875 1.921875 -4.390625 C 0.984375 -5.867188 0.515625 -7.460938 0.515625 -9.171875 C 0.515625 -10.472656 0.789062 -11.71875 1.34375 -12.90625 C 1.894531 -14.09375 2.625 -15.109375 3.53125 -15.953125 C 4.445312 -16.804688 5.515625 -17.484375 6.734375 -17.984375 C 7.960938 -18.492188 9.21875 -18.75 10.5 -18.75 C 11.6875 -18.75 12.78125 -18.609375 13.78125 -18.328125 C 14.789062 -18.046875 15.503906 -17.765625 15.921875 -17.484375 L 16.546875 -17.0625 L 14.765625 -13.484375 C 14.660156 -13.578125 14.503906 -13.6875 14.296875 -13.8125 C 14.085938 -13.9375 13.671875 -14.101562 13.046875 -14.3125 C 12.421875 -14.519531 11.785156 -14.625 11.140625 -14.625 C 10.128906 -14.625 9.222656 -14.457031 8.421875 -14.125 C 7.617188 -13.800781 6.984375 -13.367188 6.515625 -12.828125 C 6.046875 -12.296875 5.6875 -11.722656 5.4375 -11.109375 C 5.1875 -10.492188 5.0625 -9.863281 5.0625 -9.21875 C 5.0625 -7.820312 5.585938 -6.566406 6.640625 -5.453125 C 7.691406 -4.347656 9.191406 -3.796875 11.140625 -3.796875 Z M 11.140625 -3.796875 "/></g></g></g></g><g clip-path="url(#85648d65cd)"><g fill="#403636" fill-opacity="1"><g transform="translate(101.85434, 19.635434)"><g><path d="M 0.515625 -9.21875 C 0.515625 -11.882812 1.421875 -14.140625 3.234375 -15.984375 C 5.054688 -17.828125 7.242188 -18.75 9.796875 -18.75 C 12.378906 -18.75 14.566406 -17.828125 16.359375 -15.984375 C 18.160156 -14.148438 19.0625 -11.894531 19.0625 -9.21875 C 19.0625 -6.53125 18.175781 -4.265625 16.40625 -2.421875 C 14.632812 -0.585938 12.429688 0.328125 9.796875 0.328125 C 7.109375 0.328125 4.890625 -0.582031 3.140625 -2.40625 C 1.390625 -4.226562 0.515625 -6.5 0.515625 -9.21875 Z M 5.046875 -9.21875 C 5.046875 -8.25 5.191406 -7.363281 5.484375 -6.5625 C 5.785156 -5.769531 6.304688 -5.097656 7.046875 -4.546875 C 7.796875 -4.003906 8.710938 -3.734375 9.796875 -3.734375 C 11.359375 -3.734375 12.535156 -4.265625 13.328125 -5.328125 C 14.128906 -6.398438 14.53125 -7.695312 14.53125 -9.21875 C 14.53125 -10.726562 14.125 -12.019531 13.3125 -13.09375 C 12.507812 -14.175781 11.335938 -14.71875 9.796875 -14.71875 C 8.285156 -14.71875 7.113281 -14.175781 6.28125 -13.09375 C 5.457031 -12.019531 5.046875 -10.726562 5.046875 -9.21875 Z M 5.046875 -9.21875 "/></g></g></g></g><g fill="#403636" fill-opacity="1"><g transform="translate(122.725333, 19.635434)"><g><path d="M 5.53125 -11.4375 L 5.53125 0 L 1.34375 0 L 1.34375 -18.421875 L 5.53125 -18.421875 L 12.859375 -6.984375 L 12.90625 -6.984375 L 12.90625 -18.421875 L 17.109375 -18.421875 L 17.109375 0 L 12.90625 0 L 5.578125 -11.4375 Z M 5.53125 -11.4375 "/></g></g></g><g clip-path="url(#f395c636bb)"><g fill="#403636" fill-opacity="1"><g transform="translate(142.457934, 19.635434)"><g><path d="M 8.125 -18.75 C 9.125 -18.75 10.097656 -18.601562 11.046875 -18.3125 C 12.003906 -18.03125 12.710938 -17.742188 13.171875 -17.453125 L 13.84375 -17.015625 L 12.140625 -13.671875 C 12.015625 -13.753906 11.832031 -13.863281 11.59375 -14 C 11.351562 -14.144531 10.90625 -14.335938 10.25 -14.578125 C 9.59375 -14.816406 8.984375 -14.9375 8.421875 -14.9375 C 7.722656 -14.9375 7.179688 -14.785156 6.796875 -14.484375 C 6.421875 -14.191406 6.234375 -13.789062 6.234375 -13.28125 C 6.234375 -13.03125 6.320312 -12.796875 6.5 -12.578125 C 6.675781 -12.367188 6.976562 -12.140625 7.40625 -11.890625 C 7.84375 -11.640625 8.222656 -11.441406 8.546875 -11.296875 C 8.878906 -11.148438 9.382812 -10.925781 10.0625 -10.625 C 11.257812 -10.125 12.273438 -9.4375 13.109375 -8.5625 C 13.953125 -7.6875 14.375 -6.703125 14.375 -5.609375 C 14.375 -4.546875 14.179688 -3.617188 13.796875 -2.828125 C 13.421875 -2.046875 12.898438 -1.429688 12.234375 -0.984375 C 11.578125 -0.535156 10.847656 -0.207031 10.046875 0 C 9.242188 0.21875 8.375 0.328125 7.4375 0.328125 C 6.632812 0.328125 5.84375 0.242188 5.0625 0.078125 C 4.289062 -0.078125 3.644531 -0.273438 3.125 -0.515625 C 2.601562 -0.765625 2.132812 -1.007812 1.71875 -1.25 C 1.300781 -1.488281 0.992188 -1.691406 0.796875 -1.859375 L 0.515625 -2.09375 L 2.609375 -5.625 C 2.785156 -5.476562 3.03125 -5.289062 3.34375 -5.0625 C 3.65625 -4.832031 4.207031 -4.519531 5 -4.125 C 5.800781 -3.738281 6.507812 -3.546875 7.125 -3.546875 C 8.894531 -3.546875 9.78125 -4.148438 9.78125 -5.359375 C 9.78125 -5.609375 9.71875 -5.84375 9.59375 -6.0625 C 9.46875 -6.28125 9.242188 -6.492188 8.921875 -6.703125 C 8.597656 -6.921875 8.3125 -7.09375 8.0625 -7.21875 C 7.820312 -7.34375 7.421875 -7.535156 6.859375 -7.796875 C 6.304688 -8.054688 5.894531 -8.253906 5.625 -8.390625 C 4.507812 -8.941406 3.644531 -9.628906 3.03125 -10.453125 C 2.425781 -11.285156 2.125 -12.175781 2.125 -13.125 C 2.125 -14.78125 2.734375 -16.128906 3.953125 -17.171875 C 5.171875 -18.222656 6.5625 -18.75 8.125 -18.75 Z M 8.125 -18.75 "/></g></g></g></g><g fill="#403636" fill-opacity="1"><g transform="translate(158.753032, 19.635434)"><g><path d="M 15.5 -18.421875 L 15.5 -6.546875 C 15.5 -4.273438 14.882812 -2.5625 13.65625 -1.40625 C 12.4375 -0.25 10.648438 0.328125 8.296875 0.328125 C 5.953125 0.328125 4.164062 -0.25 2.9375 -1.40625 C 1.71875 -2.5625 1.109375 -4.273438 1.109375 -6.546875 L 1.109375 -18.421875 L 5.3125 -18.421875 L 5.3125 -7.765625 C 5.3125 -6.273438 5.546875 -5.238281 6.015625 -4.65625 C 6.484375 -4.082031 7.242188 -3.796875 8.296875 -3.796875 C 9.359375 -3.796875 10.125 -4.082031 10.59375 -4.65625 C 11.0625 -5.238281 11.296875 -6.273438 11.296875 -7.765625 L 11.296875 -18.421875 Z M 15.5 -18.421875 "/></g></g></g><g fill="#403636" fill-opacity="1"><g transform="translate(176.655271, 19.635434)"><g><path d="M 5.53125 -18.421875 L 5.53125 -3.6875 L 11.875 -3.6875 L 11.875 0 L 1.34375 0 L 1.34375 -18.421875 Z M 5.53125 -18.421875 "/></g></g></g><g fill="#403636" fill-opacity="1"><g transform="translate(190.561974, 19.635434)"><g><path d="M 0.171875 -14.734375 L 0.171875 -18.421875 L 13.125 -18.421875 L 13.125 -14.734375 L 8.75 -14.734375 L 8.75 0 L 4.5625 0 L 4.5625 -14.734375 Z M 0.171875 -14.734375 "/></g></g></g><g fill="#403636" fill-opacity="1"><g transform="translate(205.160649, 19.635434)"><g><path d="M 10.6875 -18.421875 L 18.125 0 L 13.625 0 L 12.265625 -3.6875 L 5.25 -3.6875 L 3.890625 0 L -0.625 0 L 6.8125 -18.421875 Z M 10.828125 -7.375 L 8.78125 -12.734375 L 8.734375 -12.734375 L 6.671875 -7.375 Z M 10.828125 -7.375 "/></g></g></g><g fill="#403636" fill-opacity="1"><g transform="translate(223.955754, 19.635434)"><g><path d="M 5.53125 -11.4375 L 5.53125 0 L 1.34375 0 L 1.34375 -18.421875 L 5.53125 -18.421875 L 12.859375 -6.984375 L 12.90625 -6.984375 L 12.90625 -18.421875 L 17.109375 -18.421875 L 17.109375 0 L 12.90625 0 L 5.578125 -11.4375 Z M 5.53125 -11.4375 "/></g></g></g><g fill="#403636" fill-opacity="1"><g transform="translate(243.688343, 19.635434)"><g><path d="M 0.171875 -14.734375 L 0.171875 -18.421875 L 13.125 -18.421875 L 13.125 -14.734375 L 8.75 -14.734375 L 8.75 0 L 4.5625 0 L 4.5625 -14.734375 Z M 0.171875 -14.734375 "/></g></g></g><g clip-path="url(#19a2e73b89)"><g fill="#403636" fill-opacity="1"><g transform="translate(258.28703, 19.635434)"><g><path d="M 8.125 -18.75 C 9.125 -18.75 10.097656 -18.601562 11.046875 -18.3125 C 12.003906 -18.03125 12.710938 -17.742188 13.171875 -17.453125 L 13.84375 -17.015625 L 12.140625 -13.671875 C 12.015625 -13.753906 11.832031 -13.863281 11.59375 -14 C 11.351562 -14.144531 10.90625 -14.335938 10.25 -14.578125 C 9.59375 -14.816406 8.984375 -14.9375 8.421875 -14.9375 C 7.722656 -14.9375 7.179688 -14.785156 6.796875 -14.484375 C 6.421875 -14.191406 6.234375 -13.789062 6.234375 -13.28125 C 6.234375 -13.03125 6.320312 -12.796875 6.5 -12.578125 C 6.675781 -12.367188 6.976562 -12.140625 7.40625 -11.890625 C 7.84375 -11.640625 8.222656 -11.441406 8.546875 -11.296875 C 8.878906 -11.148438 9.382812 -10.925781 10.0625 -10.625 C 11.257812 -10.125 12.273438 -9.4375 13.109375 -8.5625 C 13.953125 -7.6875 14.375 -6.703125 14.375 -5.609375 C 14.375 -4.546875 14.179688 -3.617188 13.796875 -2.828125 C 13.421875 -2.046875 12.898438 -1.429688 12.234375 -0.984375 C 11.578125 -0.535156 10.847656 -0.207031 10.046875 0 C 9.242188 0.21875 8.375 0.328125 7.4375 0.328125 C 6.632812 0.328125 5.84375 0.242188 5.0625 0.078125 C 4.289062 -0.078125 3.644531 -0.273438 3.125 -0.515625 C 2.601562 -0.765625 2.132812 -1.007812 1.71875 -1.25 C 1.300781 -1.488281 0.992188 -1.691406 0.796875 -1.859375 L 0.515625 -2.09375 L 2.609375 -5.625 C 2.785156 -5.476562 3.03125 -5.289062 3.34375 -5.0625 C 3.65625 -4.832031 4.207031 -4.519531 5 -4.125 C 5.800781 -3.738281 6.507812 -3.546875 7.125 -3.546875 C 8.894531 -3.546875 9.78125 -4.148438 9.78125 -5.359375 C 9.78125 -5.609375 9.71875 -5.84375 9.59375 -6.0625 C 9.46875 -6.28125 9.242188 -6.492188 8.921875 -6.703125 C 8.597656 -6.921875 8.3125 -7.09375 8.0625 -7.21875 C 7.820312 -7.34375 7.421875 -7.535156 6.859375 -7.796875 C 6.304688 -8.054688 5.894531 -8.253906 5.625 -8.390625 C 4.507812 -8.941406 3.644531 -9.628906 3.03125 -10.453125 C 2.425781 -11.285156 2.125 -12.175781 2.125 -13.125 C 2.125 -14.78125 2.734375 -16.128906 3.953125 -17.171875 C 5.171875 -18.222656 6.5625 -18.75 8.125 -18.75 Z M 8.125 -18.75 "/></g></g></g></g></g></g><g transform="matrix(1, 0, 0, 1, 69, 188)"><g clip-path="url(#e019d25cb7)"><g fill="#403636" fill-opacity="1"><g transform="translate(0.840632, 13.545542)"><g><path d="M 4.90625 -6.953125 C 5.738281 -6.953125 6.65625 -6.75 7.65625 -6.34375 C 7.726562 -6.3125 7.796875 -6.285156 7.859375 -6.265625 C 7.921875 -6.242188 7.972656 -6.234375 8.015625 -6.234375 C 8.078125 -6.234375 8.164062 -6.304688 8.28125 -6.453125 L 8.375 -6.390625 L 7.53125 -4.71875 L 7.40625 -4.765625 C 7.457031 -4.867188 7.484375 -4.960938 7.484375 -5.046875 C 7.484375 -5.109375 7.46875 -5.160156 7.4375 -5.203125 C 7.414062 -5.242188 7.363281 -5.289062 7.28125 -5.34375 C 6.976562 -5.53125 6.625 -5.675781 6.21875 -5.78125 C 5.8125 -5.882812 5.390625 -5.9375 4.953125 -5.9375 C 4.046875 -5.9375 3.328125 -5.703125 2.796875 -5.234375 C 2.273438 -4.773438 2.015625 -4.15625 2.015625 -3.375 C 2.015625 -2.664062 2.257812 -2.066406 2.75 -1.578125 C 3.238281 -1.097656 4.015625 -0.859375 5.078125 -0.859375 C 5.484375 -0.859375 5.84375 -0.882812 6.15625 -0.9375 C 6.46875 -1 6.804688 -1.097656 7.171875 -1.234375 L 7.171875 -2.5 L 5.375 -2.5 C 5.300781 -2.5 5.25 -2.46875 5.21875 -2.40625 C 5.1875 -2.351562 5.148438 -2.253906 5.109375 -2.109375 L 4.953125 -2.109375 L 4.953125 -3.90625 L 5.109375 -3.90625 C 5.160156 -3.757812 5.207031 -3.648438 5.25 -3.578125 C 5.300781 -3.503906 5.375 -3.46875 5.46875 -3.46875 L 8.9375 -3.46875 L 8.9375 -3.296875 C 8.625 -3.234375 8.46875 -3.140625 8.46875 -3.015625 L 8.46875 -1.234375 C 8.46875 -1.148438 8.625 -1.109375 8.9375 -1.109375 L 8.9375 -0.9375 C 8.070312 -0.539062 7.335938 -0.257812 6.734375 -0.09375 C 6.140625 0.0703125 5.523438 0.15625 4.890625 0.15625 C 4.035156 0.15625 3.28125 0.0078125 2.625 -0.28125 C 1.96875 -0.582031 1.457031 -1 1.09375 -1.53125 C 0.726562 -2.0625 0.546875 -2.664062 0.546875 -3.34375 C 0.546875 -4.019531 0.734375 -4.632812 1.109375 -5.1875 C 1.484375 -5.738281 2.003906 -6.171875 2.671875 -6.484375 C 3.335938 -6.796875 4.082031 -6.953125 4.90625 -6.953125 Z M 4.90625 -6.953125 "/></g></g></g><g fill="#403636" fill-opacity="1"><g transform="translate(12.052823, 13.545542)"><g><path d="M 7.921875 -5.40625 C 7.878906 -5.550781 7.835938 -5.660156 7.796875 -5.734375 C 7.753906 -5.804688 7.695312 -5.84375 7.625 -5.84375 L 2.734375 -5.84375 L 2.734375 -3.96875 L 5.8125 -3.96875 C 5.925781 -3.96875 6.019531 -4.117188 6.09375 -4.421875 L 6.265625 -4.421875 L 6.265625 -2.5625 L 6.09375 -2.5625 C 6.050781 -2.71875 6.007812 -2.832031 5.96875 -2.90625 C 5.925781 -2.976562 5.875 -3.015625 5.8125 -3.015625 L 2.734375 -3.015625 L 2.734375 -0.953125 L 7.625 -0.953125 C 7.695312 -0.953125 7.753906 -0.988281 7.796875 -1.0625 C 7.835938 -1.132812 7.878906 -1.25 7.921875 -1.40625 L 8.09375 -1.40625 L 8.09375 0.453125 L 7.921875 0.453125 C 7.878906 0.296875 7.835938 0.179688 7.796875 0.109375 C 7.765625 0.0351562 7.707031 0 7.625 0 L 0.90625 0 L 0.90625 -0.171875 C 1.207031 -0.242188 1.359375 -0.34375 1.359375 -0.46875 L 1.359375 -6.34375 C 1.359375 -6.414062 1.320312 -6.472656 1.25 -6.515625 C 1.175781 -6.554688 1.0625 -6.597656 0.90625 -6.640625 L 0.90625 -6.8125 L 7.625 -6.8125 C 7.75 -6.8125 7.847656 -6.960938 7.921875 -7.265625 L 8.09375 -7.265625 L 8.09375 -5.40625 Z M 7.921875 -5.40625 "/></g></g></g><g fill="#403636" fill-opacity="1"><g transform="translate(22.286844, 13.545542)"><g><path d="M 3.59375 -6.640625 C 3.476562 -6.617188 3.363281 -6.582031 3.25 -6.53125 C 3.132812 -6.476562 3.078125 -6.429688 3.078125 -6.390625 C 3.078125 -6.367188 3.097656 -6.335938 3.140625 -6.296875 L 7.1875 -1.96875 L 7.1875 -6.34375 C 7.1875 -6.414062 7.148438 -6.472656 7.078125 -6.515625 C 7.015625 -6.554688 6.898438 -6.597656 6.734375 -6.640625 L 6.734375 -6.8125 L 8.65625 -6.8125 L 8.65625 -6.640625 C 8.5 -6.597656 8.382812 -6.554688 8.3125 -6.515625 C 8.238281 -6.484375 8.203125 -6.425781 8.203125 -6.34375 L 8.203125 -0.46875 C 8.203125 -0.332031 8.351562 -0.234375 8.65625 -0.171875 L 8.65625 0 L 6.609375 0 L 6.609375 -0.171875 C 6.773438 -0.234375 6.859375 -0.296875 6.859375 -0.359375 C 6.859375 -0.410156 6.820312 -0.472656 6.75 -0.546875 C 6.6875 -0.617188 6.640625 -0.675781 6.609375 -0.71875 L 2.40625 -5.234375 L 2.40625 -0.46875 C 2.40625 -0.332031 2.554688 -0.234375 2.859375 -0.171875 L 2.859375 0 L 0.9375 0 L 0.9375 -0.171875 C 1.238281 -0.234375 1.390625 -0.332031 1.390625 -0.46875 L 1.390625 -6.34375 C 1.390625 -6.414062 1.351562 -6.472656 1.28125 -6.515625 C 1.21875 -6.554688 1.101562 -6.597656 0.9375 -6.640625 L 0.9375 -6.8125 L 3.59375 -6.8125 Z M 3.59375 -6.640625 "/></g></g></g><g fill="#403636" fill-opacity="1"><g transform="translate(33.499035, 13.545542)"><g><path d="M 7.921875 -5.40625 C 7.878906 -5.550781 7.835938 -5.660156 7.796875 -5.734375 C 7.753906 -5.804688 7.695312 -5.84375 7.625 -5.84375 L 2.734375 -5.84375 L 2.734375 -3.96875 L 5.8125 -3.96875 C 5.925781 -3.96875 6.019531 -4.117188 6.09375 -4.421875 L 6.265625 -4.421875 L 6.265625 -2.5625 L 6.09375 -2.5625 C 6.050781 -2.71875 6.007812 -2.832031 5.96875 -2.90625 C 5.925781 -2.976562 5.875 -3.015625 5.8125 -3.015625 L 2.734375 -3.015625 L 2.734375 -0.953125 L 7.625 -0.953125 C 7.695312 -0.953125 7.753906 -0.988281 7.796875 -1.0625 C 7.835938 -1.132812 7.878906 -1.25 7.921875 -1.40625 L 8.09375 -1.40625 L 8.09375 0.453125 L 7.921875 0.453125 C 7.878906 0.296875 7.835938 0.179688 7.796875 0.109375 C 7.765625 0.0351562 7.707031 0 7.625 0 L 0.90625 0 L 0.90625 -0.171875 C 1.207031 -0.242188 1.359375 -0.34375 1.359375 -0.46875 L 1.359375 -6.34375 C 1.359375 -6.414062 1.320312 -6.472656 1.25 -6.515625 C 1.175781 -6.554688 1.0625 -6.597656 0.90625 -6.640625 L 0.90625 -6.8125 L 7.625 -6.8125 C 7.75 -6.8125 7.847656 -6.960938 7.921875 -7.265625 L 8.09375 -7.265625 L 8.09375 -5.40625 Z M 7.921875 -5.40625 "/></g></g></g><g fill="#403636" fill-opacity="1"><g transform="translate(43.733057, 13.545542)"><g><path d="M 8.875 -4.875 C 8.875 -4.269531 8.671875 -3.800781 8.265625 -3.46875 C 7.859375 -3.132812 7.351562 -2.941406 6.75 -2.890625 L 8.609375 -0.53125 C 8.703125 -0.414062 8.78125 -0.332031 8.84375 -0.28125 C 8.914062 -0.226562 9.03125 -0.191406 9.1875 -0.171875 L 9.1875 0 L 6.90625 0 L 6.90625 -0.171875 C 7.082031 -0.222656 7.171875 -0.285156 7.171875 -0.359375 C 7.171875 -0.367188 7.148438 -0.394531 7.109375 -0.4375 C 7.066406 -0.488281 7.039062 -0.523438 7.03125 -0.546875 L 5.1875 -2.890625 L 2.609375 -2.890625 L 2.609375 -0.46875 C 2.609375 -0.34375 2.757812 -0.242188 3.0625 -0.171875 L 3.0625 0 L 0.796875 0 L 0.796875 -0.171875 C 1.085938 -0.242188 1.234375 -0.34375 1.234375 -0.46875 L 1.234375 -6.34375 C 1.234375 -6.414062 1.195312 -6.472656 1.125 -6.515625 C 1.0625 -6.554688 0.953125 -6.597656 0.796875 -6.640625 L 0.796875 -6.8125 L 6.1875 -6.8125 C 7.050781 -6.8125 7.710938 -6.632812 8.171875 -6.28125 C 8.640625 -5.925781 8.875 -5.457031 8.875 -4.875 Z M 7.40625 -4.859375 C 7.40625 -5.160156 7.296875 -5.398438 7.078125 -5.578125 C 6.859375 -5.753906 6.585938 -5.84375 6.265625 -5.84375 L 2.609375 -5.84375 L 2.609375 -3.859375 L 6.1875 -3.859375 C 6.507812 -3.859375 6.789062 -3.9375 7.03125 -4.09375 C 7.28125 -4.257812 7.40625 -4.515625 7.40625 -4.859375 Z M 7.40625 -4.859375 "/></g></g></g><g fill="#403636" fill-opacity="1"><g transform="translate(54.945247, 13.545542)"><g><path d="M 5.625 -6.640625 C 5.375 -6.597656 5.25 -6.507812 5.25 -6.375 C 5.25 -6.34375 5.265625 -6.285156 5.296875 -6.203125 C 5.335938 -6.128906 5.363281 -6.070312 5.375 -6.03125 L 7.9375 -0.515625 C 8 -0.398438 8.050781 -0.316406 8.09375 -0.265625 C 8.144531 -0.222656 8.234375 -0.191406 8.359375 -0.171875 L 8.359375 0 L 6.28125 0 L 6.28125 -0.171875 C 6.457031 -0.234375 6.546875 -0.296875 6.546875 -0.359375 C 6.546875 -0.390625 6.535156 -0.441406 6.515625 -0.515625 L 5.8125 -2 L 2.59375 -2 L 1.921875 -0.546875 C 1.867188 -0.441406 1.84375 -0.375 1.84375 -0.34375 C 1.84375 -0.289062 1.941406 -0.234375 2.140625 -0.171875 L 2.140625 0 L 0.265625 0 L 0.265625 -0.171875 C 0.398438 -0.222656 0.492188 -0.265625 0.546875 -0.296875 C 0.597656 -0.335938 0.648438 -0.421875 0.703125 -0.546875 L 3.296875 -6.015625 C 3.316406 -6.066406 3.34375 -6.132812 3.375 -6.21875 C 3.414062 -6.300781 3.4375 -6.351562 3.4375 -6.375 C 3.4375 -6.488281 3.304688 -6.578125 3.046875 -6.640625 L 3.046875 -6.8125 L 5.625 -6.8125 Z M 5.421875 -2.875 L 4.234375 -5.515625 L 3.03125 -2.875 Z M 5.421875 -2.875 "/></g></g></g><g fill="#403636" fill-opacity="1"><g transform="translate(65.179269, 13.545542)"><g><path d="M 3.234375 -6.640625 C 3.066406 -6.597656 2.945312 -6.554688 2.875 -6.515625 C 2.8125 -6.472656 2.78125 -6.421875 2.78125 -6.359375 L 2.78125 -0.953125 L 7.59375 -0.953125 C 7.675781 -0.953125 7.738281 -0.988281 7.78125 -1.0625 C 7.820312 -1.132812 7.863281 -1.25 7.90625 -1.40625 L 8.078125 -1.40625 L 8.078125 0.453125 L 7.90625 0.453125 C 7.863281 0.296875 7.820312 0.179688 7.78125 0.109375 C 7.75 0.0351562 7.6875 0 7.59375 0 L 0.953125 0 L 0.953125 -0.171875 C 1.253906 -0.222656 1.40625 -0.316406 1.40625 -0.453125 L 1.40625 -6.359375 C 1.40625 -6.421875 1.375 -6.46875 1.3125 -6.5 C 1.25 -6.539062 1.128906 -6.585938 0.953125 -6.640625 L 0.953125 -6.8125 L 3.234375 -6.8125 Z M 3.234375 -6.640625 "/></g></g></g><g fill="#403636" fill-opacity="1"><g transform="translate(75.413291, 13.545542)"><g/></g></g><g fill="#403636" fill-opacity="1"><g transform="translate(79.872322, 13.545542)"><g><path d="M 4.59375 -6.953125 C 5.195312 -6.953125 5.71875 -6.878906 6.15625 -6.734375 C 6.59375 -6.585938 6.929688 -6.445312 7.171875 -6.3125 C 7.410156 -6.175781 7.539062 -6.109375 7.5625 -6.109375 C 7.601562 -6.109375 7.65625 -6.132812 7.71875 -6.1875 C 7.789062 -6.25 7.84375 -6.296875 7.875 -6.328125 L 8.046875 -6.234375 L 7.03125 -4.734375 L 6.859375 -4.828125 C 6.898438 -4.941406 6.921875 -5.03125 6.921875 -5.09375 C 6.921875 -5.175781 6.90625 -5.238281 6.875 -5.28125 C 6.84375 -5.320312 6.773438 -5.367188 6.671875 -5.421875 C 6.421875 -5.546875 6.117188 -5.660156 5.765625 -5.765625 C 5.421875 -5.878906 5.066406 -5.9375 4.703125 -5.9375 C 3.878906 -5.9375 3.238281 -5.703125 2.78125 -5.234375 C 2.332031 -4.773438 2.109375 -4.171875 2.109375 -3.421875 C 2.109375 -2.617188 2.359375 -1.988281 2.859375 -1.53125 C 3.367188 -1.082031 3.976562 -0.859375 4.6875 -0.859375 C 5.039062 -0.859375 5.40625 -0.921875 5.78125 -1.046875 C 6.164062 -1.171875 6.484375 -1.320312 6.734375 -1.5 C 6.992188 -1.675781 7.125 -1.828125 7.125 -1.953125 C 7.125 -2.023438 7.09375 -2.125 7.03125 -2.25 L 7.1875 -2.390625 L 8.3125 -0.90625 L 8.171875 -0.8125 C 7.972656 -0.925781 7.851562 -0.984375 7.8125 -0.984375 C 7.75 -0.984375 7.628906 -0.910156 7.453125 -0.765625 C 7.078125 -0.503906 6.675781 -0.285156 6.25 -0.109375 C 5.820312 0.0664062 5.25 0.15625 4.53125 0.15625 C 3.800781 0.15625 3.140625 0.00390625 2.546875 -0.296875 C 1.953125 -0.609375 1.484375 -1.035156 1.140625 -1.578125 C 0.804688 -2.117188 0.640625 -2.71875 0.640625 -3.375 C 0.640625 -4.050781 0.8125 -4.660156 1.15625 -5.203125 C 1.507812 -5.742188 1.988281 -6.171875 2.59375 -6.484375 C 3.195312 -6.796875 3.863281 -6.953125 4.59375 -6.953125 Z M 4.59375 -6.953125 "/></g></g></g><g fill="#403636" fill-opacity="1"><g transform="translate(90.106343, 13.545542)"><g><path d="M 4.171875 -6.953125 C 5.367188 -6.953125 6.328125 -6.632812 7.046875 -6 C 7.765625 -5.363281 8.125 -4.5 8.125 -3.40625 C 8.125 -2.695312 7.960938 -2.070312 7.640625 -1.53125 C 7.328125 -1 6.878906 -0.582031 6.296875 -0.28125 C 5.710938 0.0078125 5.035156 0.15625 4.265625 0.15625 C 3.128906 0.15625 2.210938 -0.160156 1.515625 -0.796875 C 0.816406 -1.441406 0.46875 -2.285156 0.46875 -3.328125 C 0.46875 -3.992188 0.628906 -4.601562 0.953125 -5.15625 C 1.285156 -5.71875 1.734375 -6.15625 2.296875 -6.46875 C 2.859375 -6.789062 3.484375 -6.953125 4.171875 -6.953125 Z M 1.9375 -3.390625 C 1.9375 -2.648438 2.15625 -2.039062 2.59375 -1.5625 C 3.03125 -1.09375 3.601562 -0.859375 4.3125 -0.859375 C 5.007812 -0.859375 5.570312 -1.09375 6 -1.5625 C 6.4375 -2.039062 6.65625 -2.648438 6.65625 -3.390625 C 6.65625 -4.117188 6.445312 -4.722656 6.03125 -5.203125 C 5.613281 -5.691406 5.066406 -5.9375 4.390625 -5.9375 C 3.691406 -5.9375 3.109375 -5.707031 2.640625 -5.25 C 2.171875 -4.800781 1.9375 -4.179688 1.9375 -3.390625 Z M 1.9375 -3.390625 "/></g></g></g><g fill="#403636" fill-opacity="1"><g transform="translate(100.340365, 13.545542)"><g><path d="M 3.59375 -6.640625 C 3.476562 -6.617188 3.363281 -6.582031 3.25 -6.53125 C 3.132812 -6.476562 3.078125 -6.429688 3.078125 -6.390625 C 3.078125 -6.367188 3.097656 -6.335938 3.140625 -6.296875 L 7.1875 -1.96875 L 7.1875 -6.34375 C 7.1875 -6.414062 7.148438 -6.472656 7.078125 -6.515625 C 7.015625 -6.554688 6.898438 -6.597656 6.734375 -6.640625 L 6.734375 -6.8125 L 8.65625 -6.8125 L 8.65625 -6.640625 C 8.5 -6.597656 8.382812 -6.554688 8.3125 -6.515625 C 8.238281 -6.484375 8.203125 -6.425781 8.203125 -6.34375 L 8.203125 -0.46875 C 8.203125 -0.332031 8.351562 -0.234375 8.65625 -0.171875 L 8.65625 0 L 6.609375 0 L 6.609375 -0.171875 C 6.773438 -0.234375 6.859375 -0.296875 6.859375 -0.359375 C 6.859375 -0.410156 6.820312 -0.472656 6.75 -0.546875 C 6.6875 -0.617188 6.640625 -0.675781 6.609375 -0.71875 L 2.40625 -5.234375 L 2.40625 -0.46875 C 2.40625 -0.332031 2.554688 -0.234375 2.859375 -0.171875 L 2.859375 0 L 0.9375 0 L 0.9375 -0.171875 C 1.238281 -0.234375 1.390625 -0.332031 1.390625 -0.46875 L 1.390625 -6.34375 C 1.390625 -6.414062 1.351562 -6.472656 1.28125 -6.515625 C 1.21875 -6.554688 1.101562 -6.597656 0.9375 -6.640625 L 0.9375 -6.8125 L 3.59375 -6.8125 Z M 3.59375 -6.640625 "/></g></g></g><g fill="#403636" fill-opacity="1"><g transform="translate(111.552555, 13.545542)"><g><path d="M 4.171875 -6.953125 C 5.003906 -6.953125 5.726562 -6.835938 6.34375 -6.609375 C 6.957031 -6.390625 7.269531 -6.28125 7.28125 -6.28125 C 7.351562 -6.28125 7.445312 -6.363281 7.5625 -6.53125 L 7.71875 -6.453125 L 6.890625 -4.96875 L 6.734375 -5.015625 C 6.753906 -5.117188 6.765625 -5.1875 6.765625 -5.21875 C 6.765625 -5.34375 6.695312 -5.4375 6.5625 -5.5 C 6.300781 -5.632812 5.957031 -5.75 5.53125 -5.84375 C 5.101562 -5.945312 4.65625 -6 4.1875 -6 C 3.570312 -6 3.078125 -5.90625 2.703125 -5.71875 C 2.328125 -5.53125 2.140625 -5.28125 2.140625 -4.96875 C 2.140625 -4.71875 2.28125 -4.535156 2.5625 -4.421875 C 2.84375 -4.304688 3.363281 -4.222656 4.125 -4.171875 C 5.3125 -4.085938 6.21875 -3.890625 6.84375 -3.578125 C 7.46875 -3.273438 7.78125 -2.769531 7.78125 -2.0625 C 7.78125 -1.414062 7.484375 -0.882812 6.890625 -0.46875 C 6.304688 -0.0507812 5.554688 0.15625 4.640625 0.15625 C 4.203125 0.15625 3.703125 0.101562 3.140625 0 C 2.578125 -0.113281 2.023438 -0.273438 1.484375 -0.484375 C 1.296875 -0.566406 1.191406 -0.609375 1.171875 -0.609375 C 1.085938 -0.609375 1 -0.539062 0.90625 -0.40625 L 0.734375 -0.515625 L 1.53125 -2.046875 L 1.6875 -1.96875 L 1.671875 -1.671875 C 1.671875 -1.554688 1.816406 -1.429688 2.109375 -1.296875 C 2.398438 -1.160156 2.753906 -1.046875 3.171875 -0.953125 C 3.597656 -0.859375 4.007812 -0.8125 4.40625 -0.8125 C 5.113281 -0.8125 5.648438 -0.914062 6.015625 -1.125 C 6.390625 -1.34375 6.578125 -1.613281 6.578125 -1.9375 C 6.578125 -2.257812 6.390625 -2.492188 6.015625 -2.640625 C 5.648438 -2.796875 5.050781 -2.894531 4.21875 -2.9375 C 3.207031 -2.988281 2.40625 -3.140625 1.8125 -3.390625 C 1.226562 -3.648438 0.9375 -4.125 0.9375 -4.8125 C 0.9375 -5.414062 1.210938 -5.921875 1.765625 -6.328125 C 2.316406 -6.742188 3.117188 -6.953125 4.171875 -6.953125 Z M 4.171875 -6.953125 "/></g></g></g><g fill="#403636" fill-opacity="1"><g transform="translate(121.786577, 13.545542)"><g><path d="M 2.828125 -6.640625 C 2.671875 -6.597656 2.554688 -6.554688 2.484375 -6.515625 C 2.410156 -6.484375 2.375 -6.425781 2.375 -6.34375 L 2.375 -2.453125 C 2.375 -1.867188 2.519531 -1.457031 2.8125 -1.21875 C 3.113281 -0.976562 3.628906 -0.859375 4.359375 -0.859375 C 5.609375 -0.859375 6.234375 -1.367188 6.234375 -2.390625 L 6.234375 -6.34375 C 6.234375 -6.414062 6.195312 -6.472656 6.125 -6.515625 C 6.050781 -6.554688 5.9375 -6.597656 5.78125 -6.640625 L 5.78125 -6.8125 L 8.046875 -6.8125 L 8.046875 -6.640625 C 7.890625 -6.597656 7.773438 -6.554688 7.703125 -6.515625 C 7.628906 -6.472656 7.59375 -6.414062 7.59375 -6.34375 L 7.59375 -2.515625 C 7.59375 -1.535156 7.3125 -0.84375 6.75 -0.4375 C 6.1875 -0.0390625 5.316406 0.15625 4.140625 0.15625 C 3.078125 0.15625 2.285156 -0.046875 1.765625 -0.453125 C 1.253906 -0.867188 1 -1.554688 1 -2.515625 L 1 -6.34375 C 1 -6.414062 0.960938 -6.472656 0.890625 -6.515625 C 0.828125 -6.554688 0.710938 -6.597656 0.546875 -6.640625 L 0.546875 -6.8125 L 2.828125 -6.8125 Z M 2.828125 -6.640625 "/></g></g></g><g fill="#403636" fill-opacity="1"><g transform="translate(132.020599, 13.545542)"><g><path d="M 3.234375 -6.640625 C 3.066406 -6.597656 2.945312 -6.554688 2.875 -6.515625 C 2.8125 -6.472656 2.78125 -6.421875 2.78125 -6.359375 L 2.78125 -0.953125 L 7.59375 -0.953125 C 7.675781 -0.953125 7.738281 -0.988281 7.78125 -1.0625 C 7.820312 -1.132812 7.863281 -1.25 7.90625 -1.40625 L 8.078125 -1.40625 L 8.078125 0.453125 L 7.90625 0.453125 C 7.863281 0.296875 7.820312 0.179688 7.78125 0.109375 C 7.75 0.0351562 7.6875 0 7.59375 0 L 0.953125 0 L 0.953125 -0.171875 C 1.253906 -0.222656 1.40625 -0.316406 1.40625 -0.453125 L 1.40625 -6.359375 C 1.40625 -6.421875 1.375 -6.46875 1.3125 -6.5 C 1.25 -6.539062 1.128906 -6.585938 0.953125 -6.640625 L 0.953125 -6.8125 L 3.234375 -6.8125 Z M 3.234375 -6.640625 "/></g></g></g><g fill="#403636" fill-opacity="1"><g transform="translate(142.254621, 13.545542)"><g><path d="M 0.75 -7.265625 C 0.789062 -7.097656 0.832031 -6.976562 0.875 -6.90625 C 0.914062 -6.84375 0.972656 -6.8125 1.046875 -6.8125 L 7.578125 -6.8125 C 7.648438 -6.8125 7.707031 -6.84375 7.75 -6.90625 C 7.800781 -6.976562 7.84375 -7.097656 7.875 -7.265625 L 8.046875 -7.265625 L 8.046875 -5.40625 L 7.875 -5.40625 C 7.84375 -5.5625 7.800781 -5.671875 7.75 -5.734375 C 7.707031 -5.804688 7.648438 -5.84375 7.578125 -5.84375 L 5 -5.84375 L 5 -0.453125 C 5 -0.335938 5.148438 -0.242188 5.453125 -0.171875 L 5.453125 0 L 3.171875 0 L 3.171875 -0.171875 C 3.328125 -0.203125 3.441406 -0.238281 3.515625 -0.28125 C 3.585938 -0.320312 3.625 -0.378906 3.625 -0.453125 L 3.625 -5.84375 L 1.078125 -5.84375 C 0.992188 -5.84375 0.929688 -5.8125 0.890625 -5.75 C 0.847656 -5.6875 0.800781 -5.570312 0.75 -5.40625 L 0.578125 -5.40625 L 0.578125 -7.265625 Z M 0.75 -7.265625 "/></g></g></g><g fill="#403636" fill-opacity="1"><g transform="translate(152.488643, 13.545542)"><g><path d="M 3.5 -6.640625 C 3.332031 -6.597656 3.210938 -6.554688 3.140625 -6.515625 C 3.078125 -6.472656 3.046875 -6.414062 3.046875 -6.34375 L 3.046875 -0.46875 C 3.046875 -0.332031 3.195312 -0.234375 3.5 -0.171875 L 3.5 0 L 1.21875 0 L 1.21875 -0.171875 C 1.519531 -0.234375 1.671875 -0.332031 1.671875 -0.46875 L 1.671875 -6.34375 C 1.671875 -6.414062 1.632812 -6.472656 1.5625 -6.515625 C 1.5 -6.554688 1.382812 -6.597656 1.21875 -6.640625 L 1.21875 -6.8125 L 3.5 -6.8125 Z M 3.5 -6.640625 "/></g></g></g><g fill="#403636" fill-opacity="1"><g transform="translate(158.809967, 13.545542)"><g><path d="M 3.59375 -6.640625 C 3.476562 -6.617188 3.363281 -6.582031 3.25 -6.53125 C 3.132812 -6.476562 3.078125 -6.429688 3.078125 -6.390625 C 3.078125 -6.367188 3.097656 -6.335938 3.140625 -6.296875 L 7.1875 -1.96875 L 7.1875 -6.34375 C 7.1875 -6.414062 7.148438 -6.472656 7.078125 -6.515625 C 7.015625 -6.554688 6.898438 -6.597656 6.734375 -6.640625 L 6.734375 -6.8125 L 8.65625 -6.8125 L 8.65625 -6.640625 C 8.5 -6.597656 8.382812 -6.554688 8.3125 -6.515625 C 8.238281 -6.484375 8.203125 -6.425781 8.203125 -6.34375 L 8.203125 -0.46875 C 8.203125 -0.332031 8.351562 -0.234375 8.65625 -0.171875 L 8.65625 0 L 6.609375 0 L 6.609375 -0.171875 C 6.773438 -0.234375 6.859375 -0.296875 6.859375 -0.359375 C 6.859375 -0.410156 6.820312 -0.472656 6.75 -0.546875 C 6.6875 -0.617188 6.640625 -0.675781 6.609375 -0.71875 L 2.40625 -5.234375 L 2.40625 -0.46875 C 2.40625 -0.332031 2.554688 -0.234375 2.859375 -0.171875 L 2.859375 0 L 0.9375 0 L 0.9375 -0.171875 C 1.238281 -0.234375 1.390625 -0.332031 1.390625 -0.46875 L 1.390625 -6.34375 C 1.390625 -6.414062 1.351562 -6.472656 1.28125 -6.515625 C 1.21875 -6.554688 1.101562 -6.597656 0.9375 -6.640625 L 0.9375 -6.8125 L 3.59375 -6.8125 Z M 3.59375 -6.640625 "/></g></g></g><g fill="#403636" fill-opacity="1"><g transform="translate(170.022158, 13.545542)"><g><path d="M 4.90625 -6.953125 C 5.738281 -6.953125 6.65625 -6.75 7.65625 -6.34375 C 7.726562 -6.3125 7.796875 -6.285156 7.859375 -6.265625 C 7.921875 -6.242188 7.972656 -6.234375 8.015625 -6.234375 C 8.078125 -6.234375 8.164062 -6.304688 8.28125 -6.453125 L 8.375 -6.390625 L 7.53125 -4.71875 L 7.40625 -4.765625 C 7.457031 -4.867188 7.484375 -4.960938 7.484375 -5.046875 C 7.484375 -5.109375 7.46875 -5.160156 7.4375 -5.203125 C 7.414062 -5.242188 7.363281 -5.289062 7.28125 -5.34375 C 6.976562 -5.53125 6.625 -5.675781 6.21875 -5.78125 C 5.8125 -5.882812 5.390625 -5.9375 4.953125 -5.9375 C 4.046875 -5.9375 3.328125 -5.703125 2.796875 -5.234375 C 2.273438 -4.773438 2.015625 -4.15625 2.015625 -3.375 C 2.015625 -2.664062 2.257812 -2.066406 2.75 -1.578125 C 3.238281 -1.097656 4.015625 -0.859375 5.078125 -0.859375 C 5.484375 -0.859375 5.84375 -0.882812 6.15625 -0.9375 C 6.46875 -1 6.804688 -1.097656 7.171875 -1.234375 L 7.171875 -2.5 L 5.375 -2.5 C 5.300781 -2.5 5.25 -2.46875 5.21875 -2.40625 C 5.1875 -2.351562 5.148438 -2.253906 5.109375 -2.109375 L 4.953125 -2.109375 L 4.953125 -3.90625 L 5.109375 -3.90625 C 5.160156 -3.757812 5.207031 -3.648438 5.25 -3.578125 C 5.300781 -3.503906 5.375 -3.46875 5.46875 -3.46875 L 8.9375 -3.46875 L 8.9375 -3.296875 C 8.625 -3.234375 8.46875 -3.140625 8.46875 -3.015625 L 8.46875 -1.234375 C 8.46875 -1.148438 8.625 -1.109375 8.9375 -1.109375 L 8.9375 -0.9375 C 8.070312 -0.539062 7.335938 -0.257812 6.734375 -0.09375 C 6.140625 0.0703125 5.523438 0.15625 4.890625 0.15625 C 4.035156 0.15625 3.28125 0.0078125 2.625 -0.28125 C 1.96875 -0.582031 1.457031 -1 1.09375 -1.53125 C 0.726562 -2.0625 0.546875 -2.664062 0.546875 -3.34375 C 0.546875 -4.019531 0.734375 -4.632812 1.109375 -5.1875 C 1.484375 -5.738281 2.003906 -6.171875 2.671875 -6.484375 C 3.335938 -6.796875 4.082031 -6.953125 4.90625 -6.953125 Z M 4.90625 -6.953125 "/></g></g></g><g fill="#403636" fill-opacity="1"><g transform="translate(181.234348, 13.545542)"><g/></g></g><g fill="#403636" fill-opacity="1"><g transform="translate(185.693379, 13.545542)"><g><path d="M 4.171875 -6.953125 C 5.003906 -6.953125 5.726562 -6.835938 6.34375 -6.609375 C 6.957031 -6.390625 7.269531 -6.28125 7.28125 -6.28125 C 7.351562 -6.28125 7.445312 -6.363281 7.5625 -6.53125 L 7.71875 -6.453125 L 6.890625 -4.96875 L 6.734375 -5.015625 C 6.753906 -5.117188 6.765625 -5.1875 6.765625 -5.21875 C 6.765625 -5.34375 6.695312 -5.4375 6.5625 -5.5 C 6.300781 -5.632812 5.957031 -5.75 5.53125 -5.84375 C 5.101562 -5.945312 4.65625 -6 4.1875 -6 C 3.570312 -6 3.078125 -5.90625 2.703125 -5.71875 C 2.328125 -5.53125 2.140625 -5.28125 2.140625 -4.96875 C 2.140625 -4.71875 2.28125 -4.535156 2.5625 -4.421875 C 2.84375 -4.304688 3.363281 -4.222656 4.125 -4.171875 C 5.3125 -4.085938 6.21875 -3.890625 6.84375 -3.578125 C 7.46875 -3.273438 7.78125 -2.769531 7.78125 -2.0625 C 7.78125 -1.414062 7.484375 -0.882812 6.890625 -0.46875 C 6.304688 -0.0507812 5.554688 0.15625 4.640625 0.15625 C 4.203125 0.15625 3.703125 0.101562 3.140625 0 C 2.578125 -0.113281 2.023438 -0.273438 1.484375 -0.484375 C 1.296875 -0.566406 1.191406 -0.609375 1.171875 -0.609375 C 1.085938 -0.609375 1 -0.539062 0.90625 -0.40625 L 0.734375 -0.515625 L 1.53125 -2.046875 L 1.6875 -1.96875 L 1.671875 -1.671875 C 1.671875 -1.554688 1.816406 -1.429688 2.109375 -1.296875 C 2.398438 -1.160156 2.753906 -1.046875 3.171875 -0.953125 C 3.597656 -0.859375 4.007812 -0.8125 4.40625 -0.8125 C 5.113281 -0.8125 5.648438 -0.914062 6.015625 -1.125 C 6.390625 -1.34375 6.578125 -1.613281 6.578125 -1.9375 C 6.578125 -2.257812 6.390625 -2.492188 6.015625 -2.640625 C 5.648438 -2.796875 5.050781 -2.894531 4.21875 -2.9375 C 3.207031 -2.988281 2.40625 -3.140625 1.8125 -3.390625 C 1.226562 -3.648438 0.9375 -4.125 0.9375 -4.8125 C 0.9375 -5.414062 1.210938 -5.921875 1.765625 -6.328125 C 2.316406 -6.742188 3.117188 -6.953125 4.171875 -6.953125 Z M 4.171875 -6.953125 "/></g></g></g><g fill="#403636" fill-opacity="1"><g transform="translate(195.927401, 13.545542)"><g><path d="M 4.171875 -6.953125 C 5.367188 -6.953125 6.328125 -6.632812 7.046875 -6 C 7.765625 -5.363281 8.125 -4.5 8.125 -3.40625 C 8.125 -2.695312 7.960938 -2.070312 7.640625 -1.53125 C 7.328125 -1 6.878906 -0.582031 6.296875 -0.28125 C 5.710938 0.0078125 5.035156 0.15625 4.265625 0.15625 C 3.128906 0.15625 2.210938 -0.160156 1.515625 -0.796875 C 0.816406 -1.441406 0.46875 -2.285156 0.46875 -3.328125 C 0.46875 -3.992188 0.628906 -4.601562 0.953125 -5.15625 C 1.285156 -5.71875 1.734375 -6.15625 2.296875 -6.46875 C 2.859375 -6.789062 3.484375 -6.953125 4.171875 -6.953125 Z M 1.9375 -3.390625 C 1.9375 -2.648438 2.15625 -2.039062 2.59375 -1.5625 C 3.03125 -1.09375 3.601562 -0.859375 4.3125 -0.859375 C 5.007812 -0.859375 5.570312 -1.09375 6 -1.5625 C 6.4375 -2.039062 6.65625 -2.648438 6.65625 -3.390625 C 6.65625 -4.117188 6.445312 -4.722656 6.03125 -5.203125 C 5.613281 -5.691406 5.066406 -5.9375 4.390625 -5.9375 C 3.691406 -5.9375 3.109375 -5.707031 2.640625 -5.25 C 2.171875 -4.800781 1.9375 -4.179688 1.9375 -3.390625 Z M 1.9375 -3.390625 "/></g></g></g><g fill="#403636" fill-opacity="1"><g transform="translate(206.161422, 13.545542)"><g><path d="M 3.234375 -6.640625 C 3.066406 -6.597656 2.945312 -6.554688 2.875 -6.515625 C 2.8125 -6.472656 2.78125 -6.421875 2.78125 -6.359375 L 2.78125 -0.953125 L 7.59375 -0.953125 C 7.675781 -0.953125 7.738281 -0.988281 7.78125 -1.0625 C 7.820312 -1.132812 7.863281 -1.25 7.90625 -1.40625 L 8.078125 -1.40625 L 8.078125 0.453125 L 7.90625 0.453125 C 7.863281 0.296875 7.820312 0.179688 7.78125 0.109375 C 7.75 0.0351562 7.6875 0 7.59375 0 L 0.953125 0 L 0.953125 -0.171875 C 1.253906 -0.222656 1.40625 -0.316406 1.40625 -0.453125 L 1.40625 -6.359375 C 1.40625 -6.421875 1.375 -6.46875 1.3125 -6.5 C 1.25 -6.539062 1.128906 -6.585938 0.953125 -6.640625 L 0.953125 -6.8125 L 3.234375 -6.8125 Z M 3.234375 -6.640625 "/></g></g></g><g fill="#403636" fill-opacity="1"><g transform="translate(216.395444, 13.545542)"><g><path d="M 2.828125 -6.640625 C 2.671875 -6.597656 2.554688 -6.554688 2.484375 -6.515625 C 2.410156 -6.484375 2.375 -6.425781 2.375 -6.34375 L 2.375 -2.453125 C 2.375 -1.867188 2.519531 -1.457031 2.8125 -1.21875 C 3.113281 -0.976562 3.628906 -0.859375 4.359375 -0.859375 C 5.609375 -0.859375 6.234375 -1.367188 6.234375 -2.390625 L 6.234375 -6.34375 C 6.234375 -6.414062 6.195312 -6.472656 6.125 -6.515625 C 6.050781 -6.554688 5.9375 -6.597656 5.78125 -6.640625 L 5.78125 -6.8125 L 8.046875 -6.8125 L 8.046875 -6.640625 C 7.890625 -6.597656 7.773438 -6.554688 7.703125 -6.515625 C 7.628906 -6.472656 7.59375 -6.414062 7.59375 -6.34375 L 7.59375 -2.515625 C 7.59375 -1.535156 7.3125 -0.84375 6.75 -0.4375 C 6.1875 -0.0390625 5.316406 0.15625 4.140625 0.15625 C 3.078125 0.15625 2.285156 -0.046875 1.765625 -0.453125 C 1.253906 -0.867188 1 -1.554688 1 -2.515625 L 1 -6.34375 C 1 -6.414062 0.960938 -6.472656 0.890625 -6.515625 C 0.828125 -6.554688 0.710938 -6.597656 0.546875 -6.640625 L 0.546875 -6.8125 L 2.828125 -6.8125 Z M 2.828125 -6.640625 "/></g></g></g><g fill="#403636" fill-opacity="1"><g transform="translate(226.629466, 13.545542)"><g><path d="M 0.75 -7.265625 C 0.789062 -7.097656 0.832031 -6.976562 0.875 -6.90625 C 0.914062 -6.84375 0.972656 -6.8125 1.046875 -6.8125 L 7.578125 -6.8125 C 7.648438 -6.8125 7.707031 -6.84375 7.75 -6.90625 C 7.800781 -6.976562 7.84375 -7.097656 7.875 -7.265625 L 8.046875 -7.265625 L 8.046875 -5.40625 L 7.875 -5.40625 C 7.84375 -5.5625 7.800781 -5.671875 7.75 -5.734375 C 7.707031 -5.804688 7.648438 -5.84375 7.578125 -5.84375 L 5 -5.84375 L 5 -0.453125 C 5 -0.335938 5.148438 -0.242188 5.453125 -0.171875 L 5.453125 0 L 3.171875 0 L 3.171875 -0.171875 C 3.328125 -0.203125 3.441406 -0.238281 3.515625 -0.28125 C 3.585938 -0.320312 3.625 -0.378906 3.625 -0.453125 L 3.625 -5.84375 L 1.078125 -5.84375 C 0.992188 -5.84375 0.929688 -5.8125 0.890625 -5.75 C 0.847656 -5.6875 0.800781 -5.570312 0.75 -5.40625 L 0.578125 -5.40625 L 0.578125 -7.265625 Z M 0.75 -7.265625 "/></g></g></g><g fill="#403636" fill-opacity="1"><g transform="translate(236.863488, 13.545542)"><g><path d="M 3.5 -6.640625 C 3.332031 -6.597656 3.210938 -6.554688 3.140625 -6.515625 C 3.078125 -6.472656 3.046875 -6.414062 3.046875 -6.34375 L 3.046875 -0.46875 C 3.046875 -0.332031 3.195312 -0.234375 3.5 -0.171875 L 3.5 0 L 1.21875 0 L 1.21875 -0.171875 C 1.519531 -0.234375 1.671875 -0.332031 1.671875 -0.46875 L 1.671875 -6.34375 C 1.671875 -6.414062 1.632812 -6.472656 1.5625 -6.515625 C 1.5 -6.554688 1.382812 -6.597656 1.21875 -6.640625 L 1.21875 -6.8125 L 3.5 -6.8125 Z M 3.5 -6.640625 "/></g></g></g><g fill="#403636" fill-opacity="1"><g transform="translate(243.184812, 13.545542)"><g><path d="M 4.171875 -6.953125 C 5.367188 -6.953125 6.328125 -6.632812 7.046875 -6 C 7.765625 -5.363281 8.125 -4.5 8.125 -3.40625 C 8.125 -2.695312 7.960938 -2.070312 7.640625 -1.53125 C 7.328125 -1 6.878906 -0.582031 6.296875 -0.28125 C 5.710938 0.0078125 5.035156 0.15625 4.265625 0.15625 C 3.128906 0.15625 2.210938 -0.160156 1.515625 -0.796875 C 0.816406 -1.441406 0.46875 -2.285156 0.46875 -3.328125 C 0.46875 -3.992188 0.628906 -4.601562 0.953125 -5.15625 C 1.285156 -5.71875 1.734375 -6.15625 2.296875 -6.46875 C 2.859375 -6.789062 3.484375 -6.953125 4.171875 -6.953125 Z M 1.9375 -3.390625 C 1.9375 -2.648438 2.15625 -2.039062 2.59375 -1.5625 C 3.03125 -1.09375 3.601562 -0.859375 4.3125 -0.859375 C 5.007812 -0.859375 5.570312 -1.09375 6 -1.5625 C 6.4375 -2.039062 6.65625 -2.648438 6.65625 -3.390625 C 6.65625 -4.117188 6.445312 -4.722656 6.03125 -5.203125 C 5.613281 -5.691406 5.066406 -5.9375 4.390625 -5.9375 C 3.691406 -5.9375 3.109375 -5.707031 2.640625 -5.25 C 2.171875 -4.800781 1.9375 -4.179688 1.9375 -3.390625 Z M 1.9375 -3.390625 "/></g></g></g><g fill="#403636" fill-opacity="1"><g transform="translate(253.418834, 13.545542)"><g><path d="M 3.59375 -6.640625 C 3.476562 -6.617188 3.363281 -6.582031 3.25 -6.53125 C 3.132812 -6.476562 3.078125 -6.429688 3.078125 -6.390625 C 3.078125 -6.367188 3.097656 -6.335938 3.140625 -6.296875 L 7.1875 -1.96875 L 7.1875 -6.34375 C 7.1875 -6.414062 7.148438 -6.472656 7.078125 -6.515625 C 7.015625 -6.554688 6.898438 -6.597656 6.734375 -6.640625 L 6.734375 -6.8125 L 8.65625 -6.8125 L 8.65625 -6.640625 C 8.5 -6.597656 8.382812 -6.554688 8.3125 -6.515625 C 8.238281 -6.484375 8.203125 -6.425781 8.203125 -6.34375 L 8.203125 -0.46875 C 8.203125 -0.332031 8.351562 -0.234375 8.65625 -0.171875 L 8.65625 0 L 6.609375 0 L 6.609375 -0.171875 C 6.773438 -0.234375 6.859375 -0.296875 6.859375 -0.359375 C 6.859375 -0.410156 6.820312 -0.472656 6.75 -0.546875 C 6.6875 -0.617188 6.640625 -0.675781 6.609375 -0.71875 L 2.40625 -5.234375 L 2.40625 -0.46875 C 2.40625 -0.332031 2.554688 -0.234375 2.859375 -0.171875 L 2.859375 0 L 0.9375 0 L 0.9375 -0.171875 C 1.238281 -0.234375 1.390625 -0.332031 1.390625 -0.46875 L 1.390625 -6.34375 C 1.390625 -6.414062 1.351562 -6.472656 1.28125 -6.515625 C 1.21875 -6.554688 1.101562 -6.597656 0.9375 -6.640625 L 0.9375 -6.8125 L 3.59375 -6.8125 Z M 3.59375 -6.640625 "/></g></g></g><g fill="#403636" fill-opacity="1"><g transform="translate(264.631012, 13.545542)"><g><path d="M 4.171875 -6.953125 C 5.003906 -6.953125 5.726562 -6.835938 6.34375 -6.609375 C 6.957031 -6.390625 7.269531 -6.28125 7.28125 -6.28125 C 7.351562 -6.28125 7.445312 -6.363281 7.5625 -6.53125 L 7.71875 -6.453125 L 6.890625 -4.96875 L 6.734375 -5.015625 C 6.753906 -5.117188 6.765625 -5.1875 6.765625 -5.21875 C 6.765625 -5.34375 6.695312 -5.4375 6.5625 -5.5 C 6.300781 -5.632812 5.957031 -5.75 5.53125 -5.84375 C 5.101562 -5.945312 4.65625 -6 4.1875 -6 C 3.570312 -6 3.078125 -5.90625 2.703125 -5.71875 C 2.328125 -5.53125 2.140625 -5.28125 2.140625 -4.96875 C 2.140625 -4.71875 2.28125 -4.535156 2.5625 -4.421875 C 2.84375 -4.304688 3.363281 -4.222656 4.125 -4.171875 C 5.3125 -4.085938 6.21875 -3.890625 6.84375 -3.578125 C 7.46875 -3.273438 7.78125 -2.769531 7.78125 -2.0625 C 7.78125 -1.414062 7.484375 -0.882812 6.890625 -0.46875 C 6.304688 -0.0507812 5.554688 0.15625 4.640625 0.15625 C 4.203125 0.15625 3.703125 0.101562 3.140625 0 C 2.578125 -0.113281 2.023438 -0.273438 1.484375 -0.484375 C 1.296875 -0.566406 1.191406 -0.609375 1.171875 -0.609375 C 1.085938 -0.609375 1 -0.539062 0.90625 -0.40625 L 0.734375 -0.515625 L 1.53125 -2.046875 L 1.6875 -1.96875 L 1.671875 -1.671875 C 1.671875 -1.554688 1.816406 -1.429688 2.109375 -1.296875 C 2.398438 -1.160156 2.753906 -1.046875 3.171875 -0.953125 C 3.597656 -0.859375 4.007812 -0.8125 4.40625 -0.8125 C 5.113281 -0.8125 5.648438 -0.914062 6.015625 -1.125 C 6.390625 -1.34375 6.578125 -1.613281 6.578125 -1.9375 C 6.578125 -2.257812 6.390625 -2.492188 6.015625 -2.640625 C 5.648438 -2.796875 5.050781 -2.894531 4.21875 -2.9375 C 3.207031 -2.988281 2.40625 -3.140625 1.8125 -3.390625 C 1.226562 -3.648438 0.9375 -4.125 0.9375 -4.8125 C 0.9375 -5.414062 1.210938 -5.921875 1.765625 -6.328125 C 2.316406 -6.742188 3.117188 -6.953125 4.171875 -6.953125 Z M 4.171875 -6.953125 "/></g></g></g></g></g><g clip-path="url(#1821924da0)"><g transform="matrix(1, 0, 0, 1, 34, 167)"><g clip-path="url(#3d803788b1)"><g clip-path="url(#7669e278c6)"><path fill="#457d58" d="M 0.757812 0.394531 L 26.914062 0.394531 L 26.914062 34.625 L 0.757812 34.625 Z M 0.757812 0.394531 " fill-opacity="1" fill-rule="nonzero"/></g></g></g></g><g transform="matrix(1, 0, 0, 1, 32, 154)"><g clip-path="url(#720dade654)"><g fill="#ffffff" fill-opacity="1"><g transform="translate(1.424018, 45.075442)"><g><path d="M 14.96875 -15.203125 L 26.109375 0 L 19.921875 0 L 11.9375 -10.875 L 3.65625 0.671875 L 3.65625 -29.328125 L 8.640625 -29.328125 L 8.640625 -14.96875 L 18.984375 -29.328125 L 25.140625 -29.328125 Z M 14.96875 -15.203125 "/></g></g></g></g></g></svg>