<svg xmlns="http://www.w3.org/2000/svg" xmlns:xlink="http://www.w3.org/1999/xlink" width="500" zoomAndPan="magnify" viewBox="0 0 375 374.999991" height="500" preserveAspectRatio="xMidYMid meet" version="1.0"><defs><g/><clipPath id="b5e9f917ba"><path d="M 104.722656 73.847656 L 273.328125 73.847656 L 273.328125 294.308594 L 104.722656 294.308594 Z M 104.722656 73.847656 " clip-rule="nonzero"/></clipPath><clipPath id="d8572bd14f"><path d="M 0.722656 0.847656 L 169.328125 0.847656 L 169.328125 221.308594 L 0.722656 221.308594 Z M 0.722656 0.847656 " clip-rule="nonzero"/></clipPath><clipPath id="ed319365c0"><rect x="0" width="170" y="0" height="222"/></clipPath><clipPath id="5a5284d259"><rect x="0" width="204" y="0" height="364"/></clipPath></defs><g clip-path="url(#b5e9f917ba)"><g transform="matrix(1, 0, 0, 1, 104, 73)"><g clip-path="url(#ed319365c0)"><g clip-path="url(#d8572bd14f)"><path fill="#457d58" d="M 0.722656 0.847656 L 169.328125 0.847656 L 169.328125 221.484375 L 0.722656 221.484375 Z M 0.722656 0.847656 " fill-opacity="1" fill-rule="nonzero"/></g></g></g></g><g transform="matrix(1, 0, 0, 1, 79, 0)"><g clip-path="url(#5a5284d259)"><g fill="#ffffff" fill-opacity="1"><g transform="translate(3.370341, 298.973698)"><g><path d="M 105.171875 -106.75 L 183.4375 0 L 139.921875 0 L 83.890625 -76.375 L 25.671875 4.703125 L 25.671875 -205.96875 L 60.734375 -205.96875 L 60.734375 -105.171875 L 133.34375 -205.96875 L 176.546875 -205.96875 Z M 105.171875 -106.75 "/></g></g></g></g></g></svg>